<svg width="30" height="25" viewBox="0 0 30 25" fill="none" xmlns="http://www.w3.org/2000/svg">
<path d="M17.7273 9.21875V6.5625C18.4773 6.19792 19.2445 5.92448 20.0291 5.74219C20.8136 5.5599 21.6373 5.46875 22.5 5.46875C23.0909 5.46875 23.6704 5.52083 24.2386 5.625C24.8068 5.72917 25.3636 5.85938 25.9091 6.01562V8.51562C25.3636 8.28125 24.8123 8.10521 24.255 7.9875C23.6977 7.86979 23.1127 7.81146 22.5 7.8125C21.6364 7.8125 20.8068 7.93646 20.0114 8.18437C19.2159 8.43229 18.4545 8.77708 17.7273 9.21875ZM17.7273 17.8125V15.1562C18.4773 14.7917 19.2445 14.5182 20.0291 14.3359C20.8136 14.1536 21.6373 14.0625 22.5 14.0625C23.0909 14.0625 23.6704 14.1146 24.2386 14.2188C24.8068 14.3229 25.3636 14.4531 25.9091 14.6094V17.1094C25.3636 16.875 24.8123 16.699 24.255 16.5813C23.6977 16.4635 23.1127 16.4052 22.5 16.4062C21.6364 16.4062 20.8068 16.5234 20.0114 16.7578C19.2159 16.9922 18.4545 17.3438 17.7273 17.8125ZM17.7273 13.5156V10.8594C18.4773 10.4948 19.2445 10.2214 20.0291 10.0391C20.8136 9.85677 21.6373 9.76562 22.5 9.76562C23.0909 9.76562 23.6704 9.81771 24.2386 9.92188C24.8068 10.026 25.3636 10.1563 25.9091 10.3125V12.8125C25.3636 12.5781 24.8123 12.4021 24.255 12.2844C23.6977 12.1667 23.1127 12.1083 22.5 12.1094C21.6364 12.1094 20.8068 12.2333 20.0114 12.4812C19.2159 12.7292 18.4545 13.074 17.7273 13.5156ZM7.5 18.75C8.56818 18.75 9.60818 18.887 10.62 19.1609C11.6318 19.4349 12.6373 19.8448 13.6364 20.3906V5C12.7045 4.375 11.7159 3.90625 10.6705 3.59375C9.625 3.28125 8.56818 3.125 7.5 3.125C6.68182 3.125 5.86909 3.21615 5.06182 3.39844C4.25454 3.58073 3.47636 3.85417 2.72727 4.21875V19.6875C3.52273 19.375 4.31273 19.1406 5.09727 18.9844C5.88182 18.8281 6.68272 18.75 7.5 18.75ZM16.3636 20.3906C17.3636 19.8437 18.3691 19.4333 19.38 19.1594C20.3909 18.8854 21.4309 18.749 22.5 18.75C23.3182 18.75 24.1195 18.8281 24.9041 18.9844C25.6886 19.1406 26.4782 19.375 27.2727 19.6875V4.21875C26.5227 3.85417 25.7441 3.58073 24.9368 3.39844C24.1295 3.21615 23.3173 3.125 22.5 3.125C21.4318 3.125 20.375 3.28125 19.3295 3.59375C18.2841 3.90625 17.2954 4.375 16.3636 5V20.3906ZM15 25C13.9091 24.0104 12.7273 23.2422 11.4545 22.6953C10.1818 22.1484 8.86363 21.875 7.5 21.875C6.54545 21.875 5.60773 22.0182 4.68682 22.3047C3.76591 22.5911 2.88545 22.9948 2.04545 23.5156C1.56818 23.8021 1.10818 23.7891 0.665454 23.4766C0.222727 23.1641 0.000909091 22.7083 0 22.1094V3.28125C0 2.99479 0.0627273 2.72135 0.188182 2.46094C0.313636 2.20052 0.500909 2.00521 0.75 1.875C1.79545 1.25 2.88636 0.78125 4.02273 0.46875C5.15909 0.15625 6.31818 0 7.5 0C8.81818 0 10.1082 0.195312 11.37 0.585938C12.6318 0.976562 13.8418 1.5625 15 2.34375C16.1591 1.5625 17.3695 0.976562 18.6314 0.585938C19.8932 0.195312 21.1827 0 22.5 0C23.6818 0 24.8409 0.15625 25.9773 0.46875C27.1136 0.78125 28.2045 1.25 29.25 1.875C29.5 2.00521 29.6877 2.20052 29.8132 2.46094C29.9386 2.72135 30.0009 2.99479 30 3.28125V22.1094C30 22.7083 29.7786 23.1641 29.3359 23.4766C28.8932 23.7891 28.4327 23.8021 27.9545 23.5156C27.1136 22.9948 26.2332 22.5911 25.3132 22.3047C24.3932 22.0182 23.4554 21.875 22.5 21.875C21.1364 21.875 19.8182 22.1484 18.5454 22.6953C17.2727 23.2422 16.0909 24.0104 15 25Z" fill="#6B6B6B"/>
</svg>
