<svg width="30" height="30" viewBox="0 0 30 30" fill="none" xmlns="http://www.w3.org/2000/svg">
<path d="M24.1667 15C23.5036 15 22.8677 14.7366 22.3989 14.2678C21.9301 13.7989 21.6667 13.163 21.6667 12.5C21.6667 11.837 21.9301 11.2011 22.3989 10.7322C22.8677 10.2634 23.5036 10 24.1667 10C24.8297 10 25.4656 10.2634 25.9344 10.7322C26.4033 11.2011 26.6667 11.837 26.6667 12.5C26.6667 13.163 26.4033 13.7989 25.9344 14.2678C25.4656 14.7366 24.8297 15 24.1667 15ZM19.1667 8.33333C18.5036 8.33333 17.8677 8.06994 17.3989 7.6011C16.9301 7.13226 16.6667 6.49637 16.6667 5.83333C16.6667 5.17029 16.9301 4.53441 17.3989 4.06557C17.8677 3.59673 18.5036 3.33333 19.1667 3.33333C19.8297 3.33333 20.4656 3.59673 20.9344 4.06557C21.4033 4.53441 21.6667 5.17029 21.6667 5.83333C21.6667 6.49637 21.4033 7.13226 20.9344 7.6011C20.4656 8.06994 19.8297 8.33333 19.1667 8.33333ZM10.8333 8.33333C10.1703 8.33333 9.53441 8.06994 9.06557 7.6011C8.59673 7.13226 8.33333 6.49637 8.33333 5.83333C8.33333 5.17029 8.59673 4.53441 9.06557 4.06557C9.53441 3.59673 10.1703 3.33333 10.8333 3.33333C11.4964 3.33333 12.1323 3.59673 12.6011 4.06557C13.0699 4.53441 13.3333 5.17029 13.3333 5.83333C13.3333 6.49637 13.0699 7.13226 12.6011 7.6011C12.1323 8.06994 11.4964 8.33333 10.8333 8.33333ZM5.83333 15C5.17029 15 4.53441 14.7366 4.06557 14.2678C3.59673 13.7989 3.33333 13.163 3.33333 12.5C3.33333 11.837 3.59673 11.2011 4.06557 10.7322C4.53441 10.2634 5.17029 10 5.83333 10C6.49637 10 7.13226 10.2634 7.6011 10.7322C8.06994 11.2011 8.33333 11.837 8.33333 12.5C8.33333 13.163 8.06994 13.7989 7.6011 14.2678C7.13226 14.7366 6.49637 15 5.83333 15ZM15 0C11.0218 0 7.20644 1.58035 4.3934 4.3934C1.58035 7.20644 0 11.0218 0 15C0 18.9782 1.58035 22.7936 4.3934 25.6066C7.20644 28.4196 11.0218 30 15 30C15.663 30 16.2989 29.7366 16.7678 29.2678C17.2366 28.7989 17.5 28.163 17.5 27.5C17.5 26.85 17.25 26.2667 16.85 25.8333C16.4667 25.3833 16.2167 24.8 16.2167 24.1667C16.2167 23.5036 16.4801 22.8677 16.9489 22.3989C17.4177 21.9301 18.0536 21.6667 18.7167 21.6667H21.6667C23.8768 21.6667 25.9964 20.7887 27.5592 19.2259C29.122 17.6631 30 15.5435 30 13.3333C30 5.96667 23.2833 0 15 0Z" fill="#6B6B6B"/>
</svg>
